<?xml version="1.0" standalone="no"?>
<!DOCTYPE svg PUBLIC "-//W3C//DTD SVG 20010904//EN"
 "http://www.w3.org/TR/2001/REC-SVG-20010904/DTD/svg10.dtd">
<svg version="1.0" xmlns="http://www.w3.org/2000/svg"
 width="260.000000pt" height="260.000000pt" viewBox="0 0 260.000000 260.000000"
 preserveAspectRatio="xMidYMid meet">
<metadata>
Created by potrace 1.11, written by Peter Selinger 2001-2013
</metadata>
<g transform="translate(0.000000,260.000000) scale(0.100000,-0.100000)"
fill="#000000" stroke="none">
<path d="M1653 2268 c-11 -13 -34 -44 -52 -70 -52 -77 -65 -81 -301 -83 -217
-2 -259 -6 -373 -36 -40 -11 -80 -21 -90 -24 -10 -2 -43 -13 -73 -25 -73 -27
-115 -26 -160 5 -20 14 -43 25 -50 25 -15 0 -40 -23 -61 -59 -69 -114 -102
-151 -178 -205 -98 -68 -133 -103 -178 -179 -59 -98 -81 -197 -80 -372 0 -123
4 -166 22 -240 54 -214 161 -364 327 -461 24 -14 101 -46 171 -71 453 -160
491 -168 753 -168 178 1 206 3 314 29 270 63 451 150 574 276 74 75 135 176
196 325 9 21 22 43 29 47 17 11 59 10 53 -1 -4 -5 12 0 35 10 40 20 40 20 24
46 -9 14 -36 45 -60 70 -42 43 -43 45 -38 101 6 73 -17 172 -61 259 -139 275
-292 439 -511 547 -49 25 -109 62 -133 83 -39 35 -43 43 -52 107 -11 82 -19
94 -47 64z"/>
</g>
</svg>
